####
#
# OBJ File Generated by Meshlab
#
####
# Object full_fillet_finger.obj
#
# Vertices: 210
# Faces: 416
#
####
vn 0.152283 3.044494 3.134193
v 0.008500 0.016442 0.112400
vn 0.302924 -0.306055 6.243982
v 0.008500 0.009442 0.112400
vn 1.208414 -0.300028 6.100585
v 0.008890 0.009442 0.112362
vn 0.608926 2.943725 3.066354
v 0.008890 0.016442 0.112362
vn 2.376381 -0.282502 5.750807
v 0.009265 0.009442 0.112248
vn 1.197695 2.945264 2.887963
v 0.009265 0.016442 0.112248
vn 3.453439 -0.254844 5.181093
v 0.009611 0.009442 0.112063
vn 1.738213 2.945122 2.598708
v 0.009611 0.016442 0.112063
vn 4.398170 -0.217832 4.415106
v 0.009914 0.009442 0.111814
vn 2.211355 2.945834 2.210262
v 0.009914 0.016442 0.111814
vn 5.177467 -0.171689 3.478434
v 0.010163 0.009442 0.111511
vn 2.599578 2.945107 1.736906
v 0.010163 0.016442 0.111511
vn 5.761266 -0.118783 2.405599
v 0.010348 0.009442 0.111165
vn 2.888494 2.945438 1.196483
v 0.010348 0.016442 0.111165
vn 6.124671 -0.061577 1.237508
v 0.010462 0.009442 0.110790
vn 3.066346 2.945108 0.610057
v 0.010462 0.016442 0.110790
vn 6.267045 -0.016110 0.317388
v 0.010500 0.009442 0.110400
vn 3.134033 3.043446 0.153920
v 0.010500 0.016442 0.110400
vn 6.267059 -0.317266 0.016104
v 0.010500 0.006442 0.107400
vn 6.266039 -0.320539 0.063754
v 0.010500 0.006500 0.107985
vn 6.124764 -1.237081 0.061818
v 0.010462 0.006052 0.107400
vn 6.116822 -1.230168 0.244534
v 0.010462 0.006117 0.108061
vn 5.761014 -2.405789 0.119054
v 0.010348 0.005677 0.107400
vn 5.745147 -2.371849 0.472120
v 0.010348 0.005749 0.108135
vn 5.177407 -3.478804 0.171528
v 0.010163 0.005331 0.107400
vn 5.155620 -3.416694 0.679768
v 0.010163 0.005410 0.108202
vn 4.397244 -4.415806 0.217231
v 0.009914 0.005028 0.107400
vn 4.373258 -4.325325 0.860196
v 0.009914 0.005113 0.108261
vn 3.450715 -5.183022 0.254417
v 0.009611 0.004779 0.107400
vn 3.427534 -5.067306 1.008516
v 0.009611 0.004869 0.108310
vn 2.374614 -5.751636 0.281921
v 0.009265 0.004594 0.107400
vn 2.356021 -5.616168 1.117641
v 0.009265 0.004688 0.108346
vn 1.209820 -6.101113 0.298867
v 0.008890 0.004481 0.107400
vn 1.198941 -5.952856 1.184316
v 0.008890 0.004576 0.108368
vn 0.306215 -6.243511 0.306359
v 0.008500 0.004442 0.107400
vn 0.303772 -6.099689 1.213096
v 0.008500 0.004538 0.108375
vn 6.266031 -0.302030 0.125063
v 0.010500 0.006671 0.108548
vn 6.116828 -1.158803 0.479986
v 0.010462 0.006310 0.108697
vn 5.745140 -2.234227 0.925739
v 0.010348 0.005963 0.108841
vn 5.155741 -3.218522 1.332963
v 0.010163 0.005644 0.108973
vn 4.372518 -4.074688 1.688216
v 0.009914 0.005364 0.109089
vn 3.428093 -4.773769 1.976935
v 0.009611 0.005134 0.109184
vn 2.357754 -5.290148 2.190951
v 0.009265 0.004963 0.109255
vn 1.198640 -5.606538 2.323560
v 0.008890 0.004858 0.109299
vn 0.303153 -5.746045 2.379591
v 0.008500 0.004823 0.109313
vn 6.265996 -0.272007 0.181926
v 0.010500 0.006948 0.109067
vn 6.116949 -1.042786 0.696555
v 0.010462 0.006623 0.109283
vn 5.745376 -2.010631 1.342956
v 0.010348 0.006311 0.109492
vn 5.155007 -2.897208 1.935700
v 0.010163 0.006024 0.109684
vn 4.374303 -3.666898 2.449175
v 0.009914 0.005772 0.109852
vn 3.426733 -4.295222 2.870728
v 0.009611 0.005565 0.109991
vn 2.353993 -4.762167 3.182364
v 0.009265 0.005411 0.110093
vn 1.201156 -5.047193 3.371886
v 0.008890 0.005317 0.110156
vn 0.307549 -5.171072 3.453904
v 0.008500 0.005285 0.110178
vn 6.266043 -0.231063 0.231095
v 0.010500 0.007321 0.109521
vn 6.117107 -0.886580 0.885837
v 0.010462 0.007045 0.109797
vn 5.744774 -1.710182 1.710320
v 0.010348 0.006780 0.110063
vn 5.154449 -2.464174 2.464767
v 0.010163 0.006535 0.110307
vn 4.373047 -3.118406 3.118918
v 0.009914 0.006321 0.110521
vn 3.428807 -3.653084 3.653199
v 0.009611 0.006145 0.110697
vn 2.355244 -4.049312 4.048502
v 0.009265 0.006014 0.110828
vn 1.201894 -4.292854 4.291556
v 0.008890 0.005934 0.110908
vn 0.308532 -4.396150 4.397488
v 0.008500 0.005907 0.110936
vn 6.266090 -0.181534 0.271204
v 0.010500 0.007776 0.109894
vn 6.116755 -0.696704 1.042883
v 0.010462 0.007559 0.110219
vn 5.744532 -1.343864 2.012085
v 0.010348 0.007350 0.110531
vn 5.155180 -1.935994 2.897453
v 0.010163 0.007158 0.110818
vn 4.373672 -2.450203 3.666338
v 0.009914 0.006990 0.111070
vn 3.429879 -2.870258 4.294678
v 0.009611 0.006852 0.111277
vn 2.354005 -3.181331 4.761204
v 0.009265 0.006749 0.111431
vn 1.197424 -3.372990 5.047592
v 0.008890 0.006686 0.111525
vn 0.304443 -3.453948 5.172010
v 0.008500 0.006664 0.111557
vn 6.265990 -0.125063 0.302440
v 0.010500 0.008294 0.110172
vn 6.116960 -0.479798 1.158578
v 0.010462 0.008145 0.110532
vn 5.744523 -0.925548 2.235209
v 0.010348 0.008001 0.110879
vn 5.155248 -1.333571 3.219190
v 0.010163 0.007869 0.111198
vn 4.373651 -1.687453 4.074034
v 0.009914 0.007753 0.111478
vn 3.429547 -1.976154 4.772530
v 0.009611 0.007658 0.111708
vn 2.356624 -2.191468 5.289635
v 0.009265 0.007587 0.111879
vn 1.195129 -2.322958 5.607602
v 0.008890 0.007544 0.111984
vn 0.301710 -2.380560 5.745996
v 0.008500 0.007529 0.112019
vn 6.266073 -0.063755 0.320229
v 0.010500 0.008857 0.110342
vn 6.116757 -0.244533 1.230209
v 0.010462 0.008781 0.110725
vn 5.744888 -0.471233 2.372641
v 0.010348 0.008708 0.111093
vn 5.154981 -0.679445 3.417476
v 0.010163 0.008640 0.111432
vn 4.372688 -0.860268 4.326228
v 0.009914 0.008581 0.111729
vn 3.432225 -1.008220 5.065512
v 0.009611 0.008533 0.111973
vn 2.355834 -1.116727 5.614982
v 0.009265 0.008496 0.112155
vn 1.198003 -1.185563 5.954194
v 0.008890 0.008474 0.112266
vn 0.306284 -1.215185 6.098652
v 0.008500 0.008467 0.112304
vn -2.142573 1.320947 2.420796
v -0.010500 0.017692 0.094400
vn 2.142573 1.320947 2.420796
v 0.010500 0.017692 0.094400
vn -2.569816 2.891744 0.850000
v -0.010500 0.028442 0.077694
vn 2.569816 2.891744 0.850000
v 0.010500 0.028442 0.077694
vn -4.712389 1.570796 1.570796
v -0.010500 0.028442 0.062400
vn 4.712389 1.570796 1.570796
v 0.010500 0.028442 0.062400
vn -6.267059 -0.317266 0.016104
v -0.010500 0.006442 0.107400
vn -3.134041 -0.153850 -3.043493
v -0.010500 0.006442 0.058400
vn -3.066414 -0.609790 -2.945194
v -0.010462 0.006052 0.058400
vn -6.124774 -1.237052 0.061777
v -0.010462 0.006052 0.107400
vn -2.888361 -1.196648 -2.945045
v -0.010348 0.005677 0.058400
vn -5.760989 -2.405842 0.119065
v -0.010348 0.005677 0.107400
vn -2.599496 -1.737131 -2.945481
v -0.010163 0.005331 0.058400
vn -5.177416 -3.478784 0.171567
v -0.010163 0.005331 0.107400
vn -2.210825 -2.210653 -2.945191
v -0.009914 0.005028 0.058400
vn -4.397280 -4.415780 0.217186
v -0.009914 0.005028 0.107400
vn -1.736993 -2.599545 -2.945235
v -0.009611 0.004779 0.058400
vn -3.450683 -5.183049 0.254382
v -0.009611 0.004779 0.107400
vn -1.196443 -2.888477 -2.945232
v -0.009265 0.004594 0.058400
vn -2.374596 -5.751637 0.281955
v -0.009265 0.004594 0.107400
vn -0.609936 -3.066393 -2.945252
v -0.008890 0.004481 0.058400
vn -1.209791 -6.101103 0.298955
v -0.008890 0.004481 0.107400
vn -0.153968 -3.134028 -3.043416
v -0.008500 0.004442 0.058400
vn -0.306263 -6.243499 0.306419
v -0.008500 0.004442 0.107400
vn 2.888360 -1.196647 -2.945045
v 0.010348 0.005677 0.058400
vn 2.599498 -1.737131 -2.945481
v 0.010163 0.005331 0.058400
vn 2.210825 -2.210653 -2.945191
v 0.009914 0.005028 0.058400
vn 1.736993 -2.599545 -2.945235
v 0.009611 0.004779 0.058400
vn 3.134041 -0.153850 -3.043493
v 0.010500 0.006442 0.058400
vn 3.066414 -0.609790 -2.945194
v 0.010462 0.006052 0.058400
vn 1.196443 -2.888476 -2.945232
v 0.009265 0.004594 0.058400
vn 0.609936 -3.066393 -2.945252
v 0.008890 0.004481 0.058400
vn 0.153968 -3.134028 -3.043416
v 0.008500 0.004442 0.058400
vn -1.570796 1.570796 -1.570797
v -0.010500 0.030442 0.058400
vn 1.570796 1.570796 -1.570797
v 0.010500 0.030442 0.058400
vn -1.570796 1.570796 1.570796
v -0.010500 0.030442 0.062400
vn 1.570796 1.570796 1.570796
v 0.010500 0.030442 0.062400
vn -0.303868 -6.099671 1.213094
v -0.008500 0.004538 0.108375
vn -1.198694 -5.952964 1.184091
v -0.008890 0.004576 0.108368
vn -2.356113 -5.616259 1.117276
v -0.009265 0.004688 0.108346
vn -3.427700 -5.067176 1.008582
v -0.009611 0.004869 0.108310
vn -4.373140 -4.325369 0.860434
v -0.009914 0.005113 0.108261
vn -5.155639 -3.416696 0.679654
v -0.010163 0.005410 0.108202
vn -5.745149 -2.371843 0.472107
v -0.010348 0.005749 0.108135
vn -6.116820 -1.230148 0.244636
v -0.010462 0.006117 0.108061
vn -6.266038 -0.320547 0.063769
v -0.010500 0.006500 0.107985
vn -0.302598 -5.746470 2.378882
v -0.008500 0.004823 0.109313
vn -1.199320 -5.606617 2.323291
v -0.008890 0.004858 0.109299
vn -2.357904 -5.289545 2.191996
v -0.009265 0.004963 0.109255
vn -3.427631 -4.773994 1.977105
v -0.009611 0.005134 0.109184
vn -4.372769 -4.074706 1.687622
v -0.009914 0.005364 0.109089
vn -5.155631 -3.218581 1.333211
v -0.010163 0.005644 0.108973
vn -5.745188 -2.234187 0.925614
v -0.010348 0.005963 0.108841
vn -6.116827 -1.158806 0.479910
v -0.010462 0.006310 0.108697
vn -6.266026 -0.302059 0.125107
v -0.010500 0.006671 0.108548
vn -0.306848 -5.170847 3.454519
v -0.008500 0.005285 0.110178
vn -1.202287 -5.046794 3.372200
v -0.008890 0.005317 0.110156
vn -2.353420 -4.763032 3.181362
v -0.009265 0.005411 0.110093
vn -3.426869 -4.295459 2.870294
v -0.009611 0.005565 0.109991
vn -4.374383 -3.666365 2.449804
v -0.009914 0.005772 0.109852
vn -5.154974 -2.897219 1.935668
v -0.010163 0.006024 0.109684
vn -5.745310 -2.010583 1.343266
v -0.010348 0.006311 0.109492
vn -6.116963 -1.042837 0.696468
v -0.010462 0.006623 0.109283
vn -6.266001 -0.272048 0.181771
v -0.010500 0.006948 0.109067
vn -0.309005 -4.395489 4.397999
v -0.008500 0.005907 0.110936
vn -1.201654 -4.292189 4.292056
v -0.008890 0.005934 0.110908
vn -2.354501 -4.049144 4.049187
v -0.009265 0.006014 0.110828
vn -3.429576 -3.652569 3.653105
v -0.009611 0.006145 0.110697
vn -4.372663 -3.119137 3.118671
v -0.009914 0.006321 0.110521
vn -5.154659 -2.464221 2.464325
v -0.010163 0.006535 0.110307
vn -5.744738 -1.710165 1.710296
v -0.010348 0.006780 0.110063
vn -6.117038 -0.886552 0.886273
v -0.010462 0.007045 0.109797
vn -6.266057 -0.230937 0.231028
v -0.010500 0.007321 0.109521
vn -0.305474 -3.453929 5.171748
v -0.008500 0.006664 0.111557
vn -1.196102 -3.373665 5.047243
v -0.008890 0.006686 0.111525
vn -2.354339 -3.181775 4.760807
v -0.009265 0.006749 0.111431
vn -3.429783 -2.870165 4.294813
v -0.009611 0.006852 0.111277
vn -4.373628 -2.450051 3.666555
v -0.009914 0.006990 0.111070
vn -5.155284 -1.935749 2.897505
v -0.010163 0.007158 0.110818
vn -5.744569 -1.344077 2.011819
v -0.010348 0.007350 0.110531
vn -6.116734 -0.696911 1.042744
v -0.010462 0.007559 0.110219
vn -6.266080 -0.181376 0.271418
v -0.010500 0.007776 0.109894
vn -0.301431 -2.381978 5.745475
v -0.008500 0.007529 0.112019
vn -1.195446 -2.323479 5.607382
v -0.008890 0.007544 0.111984
vn -2.356311 -2.191052 5.290019
v -0.009265 0.007587 0.111879
vn -3.429950 -1.976557 4.772145
v -0.009611 0.007658 0.111708
vn -4.373658 -1.687124 4.074088
v -0.009914 0.007753 0.111478
vn -5.155040 -1.333641 3.219491
v -0.010163 0.007869 0.111198
vn -5.744638 -0.925459 2.235039
v -0.010348 0.008001 0.110879
vn -6.116958 -0.479709 1.158602
v -0.010462 0.008145 0.110532
vn -6.265987 -0.125384 0.302333
v -0.010500 0.008294 0.110172
vn -0.306241 -1.213417 6.099012
v -0.008500 0.008467 0.112304
vn -1.197754 -1.185143 5.954407
v -0.008890 0.008474 0.112266
vn -2.356214 -1.117212 5.614788
v -0.009265 0.008496 0.112155
vn -3.432121 -1.007353 5.065750
v -0.009611 0.008533 0.111973
vn -4.372760 -0.860918 4.326032
v -0.009914 0.008581 0.111729
vn -5.154791 -0.679922 3.417755
v -0.010163 0.008640 0.111432
vn -5.745148 -0.471222 2.372114
v -0.010348 0.008708 0.111093
vn -6.116688 -0.244484 1.230452
v -0.010462 0.008781 0.110725
vn -6.266078 -0.063502 0.320235
v -0.010500 0.008857 0.110342
vn -0.303624 -0.306931 6.243827
v -0.008500 0.009442 0.112400
vn -1.207002 -0.300038 6.100865
v -0.008890 0.009442 0.112362
vn -2.377537 -0.282077 5.750405
v -0.009265 0.009442 0.112248
vn -3.452857 -0.255309 5.181391
v -0.009611 0.009442 0.112063
vn -4.398248 -0.217480 4.415104
v -0.009914 0.009442 0.111814
vn -5.177468 -0.171315 3.478525
v -0.010163 0.009442 0.111511
vn -5.761395 -0.118564 2.405353
v -0.010348 0.009442 0.111165
vn -6.124652 -0.061737 1.237509
v -0.010462 0.009442 0.110790
vn -6.267038 -0.016206 0.317463
v -0.010500 0.009442 0.110400
vn -0.152283 3.044494 3.134193
v -0.008500 0.016442 0.112400
vn -4.712389 1.570796 1.570796
v -0.010500 0.016442 0.094400
vn 4.712389 1.570796 1.570796
v 0.010500 0.016442 0.094400
vn -3.134032 3.043446 0.153920
v -0.010500 0.016442 0.110400
vn -2.888494 2.945438 1.196483
v -0.010348 0.016442 0.111165
vn -2.599579 2.945107 1.736906
v -0.010163 0.016442 0.111511
vn -2.211355 2.945832 2.210262
v -0.009914 0.016442 0.111814
vn -1.738213 2.945122 2.598708
v -0.009611 0.016442 0.112063
vn -1.197695 2.945264 2.887963
v -0.009265 0.016442 0.112248
vn -0.608926 2.943725 3.066353
v -0.008890 0.016442 0.112362
vn -3.066347 2.945108 0.610057
v -0.010462 0.016442 0.110790
# 210 vertices, 0 vertices normals

f 1//1 2//2 3//3
f 1//1 3//3 4//4
f 3//3 5//5 4//4
f 4//4 5//5 6//6
f 5//5 7//7 6//6
f 6//6 7//7 8//8
f 7//7 9//9 8//8
f 8//8 9//9 10//10
f 9//9 11//11 10//10
f 10//10 11//11 12//12
f 11//11 13//13 12//12
f 12//12 13//13 14//14
f 13//13 15//15 14//14
f 14//14 15//15 16//16
f 15//15 17//17 16//16
f 16//16 17//17 18//18
f 19//19 20//20 21//21
f 20//20 22//22 21//21
f 21//21 22//22 23//23
f 22//22 24//24 23//23
f 23//23 24//24 25//25
f 24//24 26//26 25//25
f 25//25 26//26 27//27
f 26//26 28//28 27//27
f 27//27 28//28 29//29
f 28//28 30//30 29//29
f 29//29 30//30 31//31
f 30//30 32//32 31//31
f 31//31 32//32 33//33
f 32//32 34//34 33//33
f 33//33 34//34 35//35
f 34//34 36//36 35//35
f 20//20 37//37 22//22
f 37//37 38//38 22//22
f 22//22 38//38 24//24
f 38//38 39//39 24//24
f 24//24 39//39 26//26
f 39//39 40//40 26//26
f 26//26 40//40 28//28
f 40//40 41//41 28//28
f 28//28 41//41 30//30
f 41//41 42//42 30//30
f 30//30 42//42 32//32
f 42//42 43//43 32//32
f 32//32 43//43 34//34
f 43//43 44//44 34//34
f 34//34 44//44 36//36
f 44//44 45//45 36//36
f 37//37 46//46 38//38
f 46//46 47//47 38//38
f 38//38 47//47 39//39
f 47//47 48//48 39//39
f 39//39 48//48 40//40
f 48//48 49//49 40//40
f 40//40 49//49 41//41
f 49//49 50//50 41//41
f 41//41 50//50 42//42
f 50//50 51//51 42//42
f 42//42 51//51 43//43
f 51//51 52//52 43//43
f 43//43 52//52 44//44
f 52//52 53//53 44//44
f 44//44 53//53 45//45
f 53//53 54//54 45//45
f 46//46 55//55 47//47
f 55//55 56//56 47//47
f 47//47 56//56 48//48
f 56//56 57//57 48//48
f 48//48 57//57 49//49
f 57//57 58//58 49//49
f 49//49 58//58 50//50
f 58//58 59//59 50//50
f 50//50 59//59 51//51
f 59//59 60//60 51//51
f 51//51 60//60 52//52
f 60//60 61//61 52//52
f 52//52 61//61 53//53
f 61//61 62//62 53//53
f 53//53 62//62 54//54
f 62//62 63//63 54//54
f 55//55 64//64 56//56
f 64//64 65//65 56//56
f 56//56 65//65 57//57
f 65//65 66//66 57//57
f 57//57 66//66 58//58
f 66//66 67//67 58//58
f 58//58 67//67 59//59
f 67//67 68//68 59//59
f 59//59 68//68 60//60
f 68//68 69//69 60//60
f 60//60 69//69 61//61
f 69//69 70//70 61//61
f 61//61 70//70 62//62
f 70//70 71//71 62//62
f 62//62 71//71 63//63
f 71//71 72//72 63//63
f 64//64 73//73 65//65
f 73//73 74//74 65//65
f 65//65 74//74 66//66
f 74//74 75//75 66//66
f 66//66 75//75 67//67
f 75//75 76//76 67//67
f 67//67 76//76 68//68
f 76//76 77//77 68//68
f 68//68 77//77 69//69
f 77//77 78//78 69//69
f 69//69 78//78 70//70
f 78//78 79//79 70//70
f 70//70 79//79 71//71
f 79//79 80//80 71//71
f 71//71 80//80 72//72
f 80//80 81//81 72//72
f 73//73 82//82 74//74
f 82//82 83//83 74//74
f 74//74 83//83 75//75
f 83//83 84//84 75//75
f 75//75 84//84 76//76
f 84//84 85//85 76//76
f 76//76 85//85 77//77
f 85//85 86//86 77//77
f 77//77 86//86 78//78
f 86//86 87//87 78//78
f 78//78 87//87 79//79
f 87//87 88//88 79//79
f 79//79 88//88 80//80
f 88//88 89//89 80//80
f 80//80 89//89 81//81
f 89//89 90//90 81//81
f 82//82 17//17 83//83
f 17//17 15//15 83//83
f 83//83 15//15 84//84
f 15//15 13//13 84//84
f 84//84 13//13 85//85
f 13//13 11//11 85//85
f 85//85 11//11 86//86
f 11//11 9//9 86//86
f 86//86 9//9 87//87
f 9//9 7//7 87//87
f 87//87 7//7 88//88
f 7//7 5//5 88//88
f 88//88 5//5 89//89
f 5//5 3//3 89//89
f 89//89 3//3 90//90
f 3//3 2//2 90//90
f 91//91 92//92 93//93
f 92//92 94//94 93//93
f 93//93 94//94 95//95
f 94//94 96//96 95//95
f 97//97 98//98 99//99
f 97//97 99//99 100//100
f 99//99 101//101 100//100
f 100//100 101//101 102//102
f 101//101 103//103 102//102
f 102//102 103//103 104//104
f 103//103 105//105 104//104
f 104//104 105//105 106//106
f 105//105 107//107 106//106
f 106//106 107//107 108//108
f 107//107 109//109 108//108
f 108//108 109//109 110//110
f 109//109 111//111 110//110
f 110//110 111//111 112//112
f 111//111 113//113 112//112
f 112//112 113//113 114//114
f 115//115 116//116 117//117
f 118//118 119//119 117//117
f 119//119 120//120 117//117
f 117//117 120//120 115//115
f 118//118 121//121 119//119
f 121//121 122//122 119//119
f 119//119 122//122 123//123
f 111//111 98//98 113//113
f 98//98 124//124 113//113
f 113//113 124//124 123//123
f 124//124 125//125 123//123
f 123//123 125//125 119//119
f 111//111 109//109 98//98
f 109//109 107//107 98//98
f 98//98 107//107 105//105
f 105//105 103//103 98//98
f 103//103 101//101 98//98
f 98//98 101//101 99//99
f 95//95 96//96 126//126
f 96//96 127//127 126//126
f 114//114 128//128 112//112
f 128//128 129//129 112//112
f 112//112 129//129 110//110
f 129//129 130//130 110//110
f 110//110 130//130 108//108
f 130//130 131//131 108//108
f 108//108 131//131 106//106
f 131//131 132//132 106//106
f 106//106 132//132 104//104
f 132//132 133//133 104//104
f 104//104 133//133 102//102
f 133//133 134//134 102//102
f 102//102 134//134 100//100
f 134//134 135//135 100//100
f 100//100 135//135 97//97
f 135//135 136//136 97//97
f 128//128 137//137 129//129
f 137//137 138//138 129//129
f 129//129 138//138 130//130
f 138//138 139//139 130//130
f 130//130 139//139 131//131
f 139//139 140//140 131//131
f 131//131 140//140 132//132
f 140//140 141//141 132//132
f 132//132 141//141 133//133
f 141//141 142//142 133//133
f 133//133 142//142 134//134
f 142//142 143//143 134//134
f 134//134 143//143 135//135
f 143//143 144//144 135//135
f 135//135 144//144 136//136
f 144//144 145//145 136//136
f 137//137 146//146 138//138
f 146//146 147//147 138//138
f 138//138 147//147 139//139
f 147//147 148//148 139//139
f 139//139 148//148 140//140
f 148//148 149//149 140//140
f 140//140 149//149 141//141
f 149//149 150//150 141//141
f 141//141 150//150 142//142
f 150//150 151//151 142//142
f 142//142 151//151 143//143
f 151//151 152//152 143//143
f 143//143 152//152 144//144
f 152//152 153//153 144//144
f 144//144 153//153 145//145
f 153//153 154//154 145//145
f 146//146 155//155 147//147
f 155//155 156//156 147//147
f 147//147 156//156 148//148
f 156//156 157//157 148//148
f 148//148 157//157 149//149
f 157//157 158//158 149//149
f 149//149 158//158 150//150
f 158//158 159//159 150//150
f 150//150 159//159 151//151
f 159//159 160//160 151//151
f 151//151 160//160 152//152
f 160//160 161//161 152//152
f 152//152 161//161 153//153
f 161//161 162//162 153//153
f 153//153 162//162 154//154
f 162//162 163//163 154//154
f 155//155 164//164 156//156
f 164//164 165//165 156//156
f 156//156 165//165 157//157
f 165//165 166//166 157//157
f 157//157 166//166 158//158
f 166//166 167//167 158//158
f 158//158 167//167 159//159
f 167//167 168//168 159//159
f 159//159 168//168 160//160
f 168//168 169//169 160//160
f 160//160 169//169 161//161
f 169//169 170//170 161//161
f 161//161 170//170 162//162
f 170//170 171//171 162//162
f 162//162 171//171 163//163
f 171//171 172//172 163//163
f 164//164 173//173 165//165
f 173//173 174//174 165//165
f 165//165 174//174 166//166
f 174//174 175//175 166//166
f 166//166 175//175 167//167
f 175//175 176//176 167//167
f 167//167 176//176 168//168
f 176//176 177//177 168//168
f 168//168 177//177 169//169
f 177//177 178//178 169//169
f 169//169 178//178 170//170
f 178//178 179//179 170//170
f 170//170 179//179 171//171
f 179//179 180//180 171//171
f 171//171 180//180 172//172
f 180//180 181//181 172//172
f 173//173 182//182 174//174
f 182//182 183//183 174//174
f 174//174 183//183 175//175
f 183//183 184//184 175//175
f 175//175 184//184 176//176
f 184//184 185//185 176//176
f 176//176 185//185 177//177
f 185//185 186//186 177//177
f 177//177 186//186 178//178
f 186//186 187//187 178//178
f 178//178 187//187 179//179
f 187//187 188//188 179//179
f 179//179 188//188 180//180
f 188//188 189//189 180//180
f 180//180 189//189 181//181
f 189//189 190//190 181//181
f 182//182 191//191 183//183
f 191//191 192//192 183//183
f 183//183 192//192 184//184
f 192//192 193//193 184//184
f 184//184 193//193 185//185
f 193//193 194//194 185//185
f 185//185 194//194 186//186
f 194//194 195//195 186//186
f 186//186 195//195 187//187
f 195//195 196//196 187//187
f 187//187 196//196 188//188
f 196//196 197//197 188//188
f 188//188 197//197 189//189
f 197//197 198//198 189//189
f 189//189 198//198 190//190
f 198//198 199//199 190//190
f 1//1 200//200 2//2
f 200//200 191//191 2//2
f 201//201 202//202 91//91
f 202//202 92//92 91//91
f 114//114 35//35 36//36
f 114//114 36//36 128//128
f 36//36 45//45 128//128
f 128//128 45//45 137//137
f 45//45 54//54 137//137
f 137//137 54//54 146//146
f 54//54 63//63 146//146
f 146//146 63//63 155//155
f 63//63 72//72 155//155
f 155//155 72//72 164//164
f 72//72 81//81 164//164
f 164//164 81//81 173//173
f 81//81 90//90 173//173
f 173//173 90//90 182//182
f 90//90 2//2 182//182
f 182//182 2//2 191//191
f 199//199 203//203 201//201
f 126//126 124//124 95//95
f 124//124 98//98 95//95
f 95//95 98//98 93//93
f 199//199 201//201 98//98
f 201//201 91//91 98//98
f 98//98 91//91 93//93
f 136//136 172//172 181//181
f 145//145 154//154 136//136
f 154//154 163//163 136//136
f 136//136 163//163 172//172
f 98//98 97//97 199//199
f 97//97 136//136 199//199
f 199//199 136//136 190//190
f 136//136 181//181 190//190
f 35//35 114//114 123//123
f 114//114 113//113 123//123
f 204//204 205//205 206//206
f 203//203 207//207 208//208
f 4//4 18//18 1//1
f 18//18 202//202 1//1
f 1//1 202//202 200//200
f 4//4 6//6 18//18
f 6//6 8//8 18//18
f 18//18 8//8 10//10
f 10//10 12//12 18//18
f 12//12 14//14 18//18
f 18//18 14//14 16//16
f 202//202 201//201 200//200
f 201//201 203//203 200//200
f 200//200 203//203 209//209
f 203//203 208//208 209//209
f 207//207 203//203 206//206
f 203//203 210//210 206//206
f 206//206 210//210 204//204
f 127//127 125//125 126//126
f 125//125 124//124 126//126
f 19//19 119//119 17//17
f 119//119 202//202 17//17
f 17//17 202//202 18//18
f 92//92 202//202 94//94
f 202//202 119//119 94//94
f 94//94 119//119 96//96
f 119//119 125//125 96//96
f 96//96 125//125 127//127
f 73//73 64//64 20//20
f 19//19 17//17 20//20
f 17//17 82//82 20//20
f 20//20 82//82 73//73
f 64//64 55//55 20//20
f 55//55 46//46 20//20
f 20//20 46//46 37//37
f 203//203 199//199 198//198
f 203//203 198//198 210//210
f 198//198 197//197 210//210
f 210//210 197//197 204//204
f 197//197 196//196 204//204
f 204//204 196//196 205//205
f 196//196 195//195 205//205
f 205//205 195//195 206//206
f 195//195 194//194 206//206
f 206//206 194//194 207//207
f 194//194 193//193 207//207
f 207//207 193//193 208//208
f 193//193 192//192 208//208
f 208//208 192//192 209//209
f 192//192 191//191 209//209
f 209//209 191//191 200//200
f 35//35 123//123 122//122
f 35//35 122//122 33//33
f 122//122 121//121 33//33
f 33//33 121//121 31//31
f 121//121 118//118 31//31
f 31//31 118//118 29//29
f 118//118 117//117 29//29
f 29//29 117//117 27//27
f 117//117 116//116 27//27
f 27//27 116//116 25//25
f 116//116 115//115 25//25
f 25//25 115//115 23//23
f 115//115 120//120 23//23
f 23//23 120//120 21//21
f 120//120 119//119 21//21
f 21//21 119//119 19//19
# 416 faces, 0 coords texture

# End of File
